<svg xmlns="http://www.w3.org/2000/svg" viewBox="0 0 120 140">
<defs><radialGradient id="sh"><stop offset="0%" stop-color="#080605" stop-opacity=".55"/><stop offset="100%" stop-color="#080605" stop-opacity="0"/></radialGradient></defs>
<ellipse cx="60" cy="132" rx="26" ry="4.5" fill="url(#sh)"/>
<rect x="30" y="86" width="10" height="27" rx="5" fill="#2B2320"/>
<circle cx="35" cy="113" r="4.5" fill="#FBF7F0"/>
<rect x="38" y="78" width="44" height="52" rx="14" fill="#2B2320"/>
<path d="M52 78 L60 91 L68 78 Z" fill="#EDE7DC"/>
<path d="M58 84 L62 84 L61 97 L60 100 L59 97 Z" fill="#575046"/>
<rect x="74" y="94" width="16" height="24" rx="2.5" fill="#2B2320"/>
<rect x="76" y="96" width="12" height="20" rx="1.5" fill="#F0E3C8"/>
<rect x="72" y="86" width="10" height="22" rx="5" fill="#2B2320"/>
<circle cx="77" cy="107" r="4.5" fill="#FBF7F0"/>
<circle cx="60" cy="48" r="28" fill="#FBF7F0"/>
<path d="M33 44 Q33 20 60 20 Q87 20 87 44 Q85 28 64 26 L59 33 Q50 24 33 44 Z" fill="#080605"/>
<path d="M43 39 Q48 36.5 53 39" stroke="#080605" stroke-width="2.2" fill="none" stroke-linecap="round"/>
<path d="M67 39 Q72 36.5 77 39" stroke="#080605" stroke-width="2.2" fill="none" stroke-linecap="round"/>
<circle cx="49" cy="50" r="3" fill="#080605"/>
<circle cx="71" cy="50" r="3" fill="#080605"/>
<circle cx="47.9" cy="48.9" r="1" fill="#FBF7F0"/>
<circle cx="69.9" cy="48.9" r="1" fill="#FBF7F0"/>
<path d="M55 63 Q60 66 65 63" stroke="#080605" stroke-width="2.2" fill="none" stroke-linecap="round"/>
</svg>
