<svg xmlns="http://www.w3.org/2000/svg" viewBox="0 0 120 140">
<defs><radialGradient id="sh"><stop offset="0%" stop-color="#0F1730" stop-opacity=".55"/><stop offset="100%" stop-color="#0F1730" stop-opacity="0"/></radialGradient></defs>
<ellipse cx="60" cy="132" rx="26" ry="4.5" fill="url(#sh)"/>
<rect x="30" y="86" width="10" height="27" rx="5" fill="#2A3358"/>
<circle cx="35" cy="113" r="4.5" fill="#FBF7EE"/>
<rect x="38" y="78" width="44" height="52" rx="14" fill="#2A3358"/>
<path d="M52 78 L60 91 L68 78 Z" fill="#F6F1E8"/>
<path d="M58 84 L62 84 L61 97 L60 100 L59 97 Z" fill="#1A2340"/>
<rect x="70" y="84" width="10" height="20" rx="5" fill="#2A3358" transform="rotate(-38 75 94)"/>
<circle cx="84" cy="82" r="5" fill="#FBF7EE"/>
<rect x="86" y="74" width="4.5" height="8" rx="2.2" fill="#FBF7EE" transform="rotate(14 88 78)"/>
<circle cx="60" cy="48" r="28" fill="#FBF7EE"/>
<path d="M33 44 Q33 20 60 20 Q87 20 87 44 Q85 28 64 26 L59 33 Q50 24 33 44 Z" fill="#131A32"/>
<path d="M43 36 Q48 33.5 53 36" stroke="#131A32" stroke-width="2.2" fill="none" stroke-linecap="round"/>
<path d="M67 36 Q72 33.5 77 36" stroke="#131A32" stroke-width="2.2" fill="none" stroke-linecap="round"/>
<path d="M44.5 50 Q49 45.5 53.5 50" stroke="#131A32" stroke-width="2.8" fill="none" stroke-linecap="round"/>
<path d="M66.5 50 Q71 45.5 75.5 50" stroke="#131A32" stroke-width="2.8" fill="none" stroke-linecap="round"/>
<path d="M53 61 Q60 68 67 61" stroke="#131A32" stroke-width="2.4" fill="none" stroke-linecap="round"/>
<path d="M26 32l1 2.8 2.8 1-2.8 1L26 39.6l-1-2.8-2.8-1 2.8-1Z" fill="#FBF7EE" opacity=".65"/>
</svg>
