<svg xmlns="http://www.w3.org/2000/svg" viewBox="0 0 120 140">
<defs><radialGradient id="sh"><stop offset="0%" stop-color="#0F1730" stop-opacity=".55"/><stop offset="100%" stop-color="#0F1730" stop-opacity="0"/></radialGradient></defs>
<ellipse cx="60" cy="132" rx="26" ry="4.5" fill="url(#sh)"/>
<rect x="30" y="86" width="10" height="27" rx="5" fill="#2A3358"/>
<circle cx="35" cy="113" r="4.5" fill="#FBF7EE"/>
<rect x="38" y="78" width="44" height="52" rx="14" fill="#2A3358"/>
<path d="M52 78 L60 91 L68 78 Z" fill="#F6F1E8"/>
<path d="M58 84 L62 84 L61 96 L60 99 L59 96 Z" fill="#131A32"/>
<rect x="76" y="97" width="18" height="23" rx="2" fill="#E7DDC7"/>
<rect x="76" y="97" width="4" height="23" rx="1" fill="#1A2340"/>
<rect x="73" y="88" width="10" height="21" rx="5" fill="#2A3358"/>
<circle cx="78" cy="108" r="4.5" fill="#FBF7EE"/>
<circle cx="60" cy="48" r="30" fill="#FBF7EE"/>
<path d="M31 42 Q28 56 34 63 Q37 52 35 42 Z" fill="#8A93AD"/>
<path d="M89 42 Q92 56 86 63 Q83 52 85 42 Z" fill="#8A93AD"/>
<path d="M50 20 Q60 15 70 20" stroke="#8A93AD" stroke-width="2.4" fill="none" stroke-linecap="round"/>
<path d="M42 37 Q48 34 54 37" stroke="#131A32" stroke-width="2.2" fill="none" stroke-linecap="round"/>
<path d="M66 37 Q72 34 78 37" stroke="#131A32" stroke-width="2.2" fill="none" stroke-linecap="round"/>
<circle cx="48" cy="50" r="8" stroke="#131A32" stroke-width="2.4" fill="none"/>
<circle cx="72" cy="50" r="8" stroke="#131A32" stroke-width="2.4" fill="none"/>
<path d="M56 50 H64" stroke="#131A32" stroke-width="2.4"/>
<path d="M40 50 H33 M80 50 H87" stroke="#131A32" stroke-width="2.2" stroke-linecap="round"/>
<circle cx="48" cy="50" r="3" fill="#131A32"/>
<circle cx="72" cy="50" r="3" fill="#131A32"/>
<circle cx="46.9" cy="48.9" r="1" fill="#FBF7EE"/>
<circle cx="70.9" cy="48.9" r="1" fill="#FBF7EE"/>
<path d="M54 64 Q60 68 66 64" stroke="#131A32" stroke-width="2.4" fill="none" stroke-linecap="round"/>
</svg>
